<?xml version="1.0" standalone="no"?>
<!DOCTYPE svg PUBLIC "-//W3C//DTD SVG 20010904//EN"
 "http://www.w3.org/TR/2001/REC-SVG-20010904/DTD/svg10.dtd">
<svg version="1.0" xmlns="http://www.w3.org/2000/svg"
 width="300.000000pt" height="300.000000pt" viewBox="0 0 300.000000 300.000000"
 preserveAspectRatio="xMidYMid meet">
<metadata>
Created by potrace 1.10, written by Peter Selinger 2001-2011
</metadata>
<g transform="translate(0.000000,300.000000) scale(0.100000,-0.100000)"
fill="#ffffff" stroke="none">
<path d="M1206 2729 c-60 -14 -220 -93 -291 -144 -68 -48 -121 -113 -158 -192
-15 -33 -42 -66 -77 -95 -118 -96 -160 -184 -160 -336 0 -116 18 -191 61 -251
l31 -45 -12 -136 c-23 -237 3 -557 59 -735 10 -33 21 -95 25 -138 9 -102 38
-179 86 -227 52 -52 111 -63 294 -58 165 5 208 20 249 88 l24 40 13 -40 c51
-155 270 -232 522 -184 80 15 117 33 151 74 32 38 43 76 62 210 26 185 17 166
86 174 66 6 148 42 190 82 38 36 65 98 86 194 36 167 19 834 -23 940 -16 40
-86 104 -137 124 -17 8 -65 19 -105 26 -61 10 -73 15 -77 33 -3 12 -12 58 -21
102 -50 252 -183 430 -360 485 -58 17 -92 20 -273 19 -113 -1 -224 -5 -245
-10z m467 -14 c91 -16 150 -50 224 -128 93 -98 140 -197 174 -368 13 -63 24
-116 26 -118 1 -2 42 -10 90 -18 99 -17 133 -34 190 -96 30 -32 42 -55 46 -88
18 -125 30 -338 31 -539 0 -316 -26 -450 -104 -528 -46 -47 -98 -70 -182 -83
l-73 -11 -22 -154 c-24 -170 -41 -217 -92 -251 -51 -34 -94 -44 -224 -50 -134
-7 -215 9 -284 55 -73 49 -123 127 -123 192 0 38 -15 32 -23 -9 -9 -41 -70
-107 -115 -123 -51 -18 -311 -15 -372 4 -79 24 -140 142 -140 269 0 27 -9 75
-20 107 -27 76 -58 260 -71 422 -10 123 -4 270 17 431 6 41 3 49 -25 80 -47
51 -66 124 -65 254 0 91 4 118 22 158 31 68 65 110 137 167 42 33 64 59 68 77
7 36 52 102 106 158 79 82 274 181 391 199 66 9 342 4 413 -9z"/>
<path d="M1218 2635 c-89 -33 -227 -113 -277 -160 -65 -61 -111 -129 -111
-167 0 -22 -10 -34 -53 -61 -113 -73 -167 -164 -167 -283 0 -110 16 -160 65
-210 l42 -41 -15 -84 c-9 -54 -15 -158 -16 -289 -1 -222 14 -355 59 -500 13
-41 26 -112 29 -158 7 -103 42 -177 96 -204 49 -25 266 -26 316 -2 61 29 78
73 83 207 l3 117 73 0 73 0 4 -143 c3 -137 4 -145 31 -185 66 -100 203 -141
374 -111 71 12 122 42 141 81 7 15 21 91 32 170 11 79 22 157 25 174 l5 32 84
4 c67 3 92 9 130 32 108 63 131 155 131 526 0 146 -6 321 -13 390 l-13 125
-42 43 c-51 53 -67 60 -181 77 -48 8 -90 16 -93 19 -2 2 -15 58 -28 123 -26
130 -39 173 -80 253 -35 70 -130 169 -198 206 l-52 29 -210 2 c-160 2 -219 -1
-247 -12z m492 -47 c94 -45 177 -142 221 -257 11 -31 31 -110 44 -176 30 -149
37 -157 156 -175 46 -6 95 -18 109 -25 43 -23 84 -73 86 -108 20 -239 26 -639
12 -747 -18 -136 -38 -177 -106 -217 -35 -21 -62 -27 -124 -31 -109 -6 -103 5
-138 -257 -17 -128 -26 -154 -68 -178 -46 -27 -48 -27 -162 -29 -133 -2 -174
9 -231 59 -49 44 -59 81 -59 218 0 159 -7 170 -105 167 -99 -2 -105 -11 -106
-136 0 -72 -5 -113 -18 -144 -9 -24 -19 -43 -22 -42 -2 1 -17 -3 -32 -9 -31
-12 -237 -13 -277 -2 -14 4 -36 26 -52 52 -23 37 -29 60 -34 129 -3 47 -12
103 -19 125 -20 57 -37 124 -42 165 -3 19 -11 69 -18 110 -14 86 -18 407 -5
464 5 22 12 71 15 110 l7 71 -41 44 c-24 26 -47 62 -54 89 -16 55 -12 168 8
216 18 43 97 127 145 153 26 15 40 33 57 77 29 75 80 141 146 186 71 49 197
109 247 117 13 2 27 7 30 10 3 2 88 3 190 1 176 -3 188 -4 240 -30z"/>
<path d="M1285 2554 c-93 -23 -155 -45 -155 -55 0 -5 -5 -9 -10 -9 -19 0 -139
-81 -165 -111 -24 -29 -24 -31 -8 -56 l17 -26 116 6 c167 9 346 -7 407 -35 26
-13 50 -26 51 -30 2 -5 9 -8 15 -8 7 0 21 -13 32 -28 18 -24 20 -43 20 -167 0
-220 -38 -305 -168 -376 -108 -58 -191 -67 -402 -43 -84 10 -88 11 -149 29
-58 17 -59 17 -80 -4 -20 -21 -21 -29 -21 -309 0 -267 2 -294 24 -386 13 -55
29 -113 36 -130 7 -17 15 -75 18 -128 7 -101 18 -134 52 -145 11 -3 64 -5 119
-5 85 1 103 4 119 21 22 22 35 86 36 173 1 63 -15 89 -64 108 -33 13 -32 30 3
30 15 0 79 5 142 11 148 14 211 14 220 -1 4 -6 10 -83 14 -171 6 -148 8 -162
32 -200 34 -54 75 -70 188 -72 122 -3 147 11 169 90 17 62 32 152 42 248 3 33
8 74 10 90 15 120 27 476 22 670 -14 573 -55 767 -194 933 -73 86 -101 96
-278 99 -107 2 -167 -2 -210 -13z m347 -25 c45 -9 62 -20 108 -68 117 -120
162 -259 186 -580 27 -369 19 -815 -22 -1141 -35 -279 -29 -270 -174 -270
-181 0 -190 11 -201 243 -6 123 -11 164 -24 184 l-17 26 -117 -6 c-64 -3 -174
-13 -244 -23 l-128 -17 73 -39 c40 -22 78 -45 84 -51 17 -18 3 -195 -16 -207
-22 -14 -223 -13 -238 2 -7 7 -12 44 -12 95 0 45 -6 102 -14 125 -60 178 -85
408 -72 659 5 80 11 151 15 157 4 7 31 5 85 -8 125 -30 302 -45 377 -33 149
25 263 95 305 187 52 114 72 247 54 357 -11 69 -16 77 -61 121 -38 37 -64 52
-121 70 -67 21 -92 23 -286 23 -150 0 -212 3 -212 11 0 18 146 114 221 146 38
16 95 32 126 37 86 13 265 13 325 0z"/>
<path d="M1830 2284 c0 -10 5 -48 10 -84 6 -36 10 -139 11 -230 1 -422 -115
-767 -287 -854 -47 -23 -150 -36 -291 -37 -270 -1 -336 41 -409 256 -40 117
-60 143 -29 38 10 -32 18 -62 19 -68 2 -5 10 -27 19 -49 9 -21 17 -40 17 -42
0 -15 57 -81 83 -97 17 -11 34 -22 37 -26 3 -3 12 -7 20 -8 8 -2 47 -9 85 -16
72 -14 206 -14 324 -2 90 9 181 55 229 114 20 25 39 48 42 51 3 3 22 41 43 85
34 73 62 164 73 240 2 17 7 37 10 45 3 8 8 35 10 60 3 25 7 56 11 70 19 72 18
333 -1 459 -15 97 -26 140 -26 95z"/>
<path d="M1040 2241 c-36 -4 -83 -13 -105 -21 -61 -20 -173 -91 -200 -126 -62
-81 -54 -211 19 -292 32 -35 160 -102 198 -102 13 -1 48 -7 78 -14 91 -21 216
-20 298 3 39 11 79 25 88 33 79 63 122 150 127 258 6 107 -8 158 -55 203 -21
20 -44 38 -51 38 -45 5 -74 7 -167 13 -58 4 -118 8 -135 10 -16 2 -59 1 -95
-3z m345 -41 c114 -18 137 -53 133 -200 -3 -92 -7 -112 -32 -163 -53 -109
-144 -143 -356 -134 -143 6 -259 36 -328 87 -52 38 -72 68 -79 121 l-6 42 35
-27 c20 -15 45 -29 57 -31 12 -3 31 -8 44 -12 36 -10 413 -5 458 7 25 7 54 25
75 48 34 37 84 158 84 202 0 35 -14 13 -34 -55 -25 -82 -61 -142 -99 -162 -27
-15 -67 -18 -244 -21 -225 -4 -278 3 -350 47 -30 19 -31 21 -21 58 15 54 40
86 100 125 66 43 128 68 193 78 61 8 288 2 370 -10z"/>
<path d="M1069 2186 c-2 -2 -26 -6 -54 -9 -118 -13 -205 -61 -205 -112 0 -14
13 -34 32 -50 l33 -28 120 7 c151 8 160 9 179 25 9 8 16 10 16 7 0 -13 58 53
62 71 7 27 -20 73 -48 83 -24 10 -126 14 -135 6z m153 -36 c23 -29 23 -41 -4
-75 -35 -45 -80 -57 -221 -63 -113 -4 -130 -3 -147 13 -25 22 -26 67 -2 87 23
21 81 39 177 54 110 18 174 13 197 -16z"/>
<path d="M2041 1926 c-11 -13 -12 -39 -3 -139 7 -70 10 -276 8 -487 -3 -228 0
-372 6 -384 8 -15 19 -18 67 -14 138 10 164 87 165 488 2 466 -5 502 -92 528
-75 22 -137 25 -151 8z m101 -27 c71 -15 94 -31 101 -71 23 -130 27 -550 7
-713 -18 -150 -35 -174 -131 -182 l-61 -6 6 69 c11 104 10 769 -1 847 -11 77
-13 75 79 56z"/>
<path d="M2090 1732 c0 -5 19 -12 43 -15 23 -4 58 -9 77 -12 l35 -5 -30 14
c-40 19 -125 31 -125 18z"/>
</g>
</svg>
