<?xml version="1.0" standalone="no"?>
<!DOCTYPE svg PUBLIC "-//W3C//DTD SVG 20010904//EN"
 "http://www.w3.org/TR/2001/REC-SVG-20010904/DTD/svg10.dtd">
<svg version="1.0" xmlns="http://www.w3.org/2000/svg"
 width="596.000000pt" height="843.000000pt" viewBox="0 0 596.000000 843.000000"
 preserveAspectRatio="xMidYMid meet">

<g transform="translate(0.000000,843.000000) scale(0.100000,-0.100000)"
fill="#ffffff" stroke="none">
<path d="M1295 7680 c-15 -25 93 -270 284 -645 115 -225 181 -367 181 -390 0
-3 -20 5 -44 17 -86 41 -101 9 -56 -124 38 -114 37 -154 -4 -275 -25 -75 -41
-93 -140 -169 -53 -41 -61 -61 -86 -233 -64 -448 -84 -1191 -40 -1506 33 -238
122 -473 229 -604 65 -81 71 -96 71 -193 l0 -88 -52 -57 c-130 -145 -207 -223
-211 -216 -2 4 -10 26 -17 48 -36 112 -71 156 -109 135 -44 -23 -102 -203
-116 -355 -14 -153 73 -487 133 -510 22 -8 40 12 74 79 45 89 103 171 142 201
24 18 64 32 133 46 l98 20 18 -22 c24 -30 80 -131 110 -199 l25 -56 -35 -84
c-78 -194 -196 -518 -233 -647 -23 -76 -65 -260 -95 -409 -29 -149 -75 -351
-101 -450 -55 -210 -62 -299 -27 -375 26 -59 65 -77 124 -60 22 7 142 63 267
124 125 62 270 132 323 155 l96 42 54 -29 c117 -64 309 -100 569 -108 244 -7
430 11 785 76 149 27 150 27 178 9 114 -79 474 -217 587 -226 118 -8 200 32
220 109 10 36 3 67 -84 372 -157 554 -264 1001 -282 1181 l-7 69 29 -22 c16
-11 62 -58 103 -102 68 -74 75 -86 83 -137 10 -63 42 -128 73 -148 99 -65 205
305 205 714 0 162 -10 239 -34 254 -27 18 -46 3 -107 -87 -35 -52 -66 -95 -69
-95 -3 0 -17 19 -32 43 -15 23 -60 80 -99 127 -112 133 -104 110 -103 310 0
96 6 219 12 272 l12 96 93 139 c142 213 230 404 275 598 58 252 65 436 27 705
-42 293 -55 462 -62 783 -5 239 -9 310 -19 318 -10 8 -26 8 -58 0 -54 -13
-126 -14 -145 -2 -12 8 -13 16 -3 49 15 48 15 99 2 107 -16 10 -12 86 10 177
26 112 36 229 21 256 -17 31 -39 27 -62 -12 -11 -19 -27 -37 -35 -40 -20 -8
-74 20 -74 38 0 36 137 317 340 701 76 143 141 270 145 283 19 64 -61 21 -304
-162 -135 -101 -271 -225 -344 -312 -34 -41 -100 -143 -147 -226 -106 -190
-97 -186 -270 -129 -184 59 -229 65 -455 64 -214 -1 -418 -19 -663 -58 -149
-24 -331 -33 -401 -19 -26 6 -40 21 -92 109 -180 302 -448 580 -699 722 -75
43 -104 51 -115 33z m117 -82 c220 -133 442 -356 608 -608 74 -114 196 -357
228 -456 20 -61 26 -71 43 -67 10 3 19 6 19 7 0 10 -54 156 -79 215 -17 40
-31 75 -31 77 0 2 51 4 113 4 l113 0 12 -32 c111 -294 404 -1100 400 -1103 -2
-2 -50 8 -107 24 -87 25 -101 26 -96 12 17 -48 421 -911 426 -911 9 0 341 831
335 838 -4 3 -40 -5 -81 -18 -41 -13 -77 -21 -79 -19 -3 2 97 281 222 620
l227 615 73 -23 c40 -13 82 -23 92 -23 11 0 20 -3 20 -6 0 -3 -43 -86 -96
-185 -52 -98 -93 -183 -89 -189 16 -26 37 2 120 158 173 327 296 545 340 602
58 75 197 206 327 306 123 96 238 177 238 169 0 -21 -61 -119 -102 -164 -100
-110 -325 -423 -526 -733 -181 -279 -591 -949 -608 -992 -3 -9 52 0 167 26 94
22 173 37 176 34 7 -7 -277 -457 -703 -1114 l-80 -122 -440 592 c-243 326
-444 598 -447 604 -4 6 70 -5 173 -26 128 -27 180 -34 180 -26 0 39 -137 322
-230 476 -32 52 -172 266 -312 475 -140 209 -307 466 -373 570 -65 105 -123
195 -128 200 -46 49 342 -573 569 -910 77 -115 171 -262 209 -325 71 -119 225
-426 225 -448 0 -8 -8 -10 -22 -7 -93 21 -362 75 -364 72 -2 -2 940 -1281 960
-1304 5 -5 701 1085 796 1245 29 49 40 76 33 83 -7 7 -62 -2 -167 -26 -87 -20
-160 -35 -162 -32 -13 12 479 820 731 1203 128 193 326 466 358 493 9 7 -9
-34 -40 -91 -173 -323 -320 -637 -374 -801 -35 -107 -37 -137 -9 -137 13 0 20
7 20 19 0 39 51 182 63 177 66 -27 86 -29 121 -8 l35 21 -4 -27 c-2 -15 -6
-48 -9 -74 -3 -26 -15 -88 -27 -138 -21 -87 -21 -92 -4 -135 14 -39 15 -52 4
-94 -10 -40 -10 -55 1 -80 7 -17 16 -29 20 -26 4 2 23 0 43 -6 26 -7 53 -6 98
5 l62 14 -6 -52 c-8 -60 8 -509 24 -676 5 -63 21 -194 35 -290 44 -304 43
-443 -7 -691 -27 -136 -58 -230 -123 -364 -66 -137 -148 -270 -247 -402 -68
-89 -76 -103 -62 -114 13 -11 18 -10 29 6 13 17 14 8 7 -70 -10 -116 -10 -382
0 -417 4 -15 41 -68 82 -116 95 -114 172 -226 180 -263 5 -20 13 -29 26 -29
20 0 24 20 10 55 -6 15 5 40 52 108 32 48 63 90 68 92 26 17 23 -377 -6 -545
-28 -171 -86 -340 -115 -340 -19 0 -50 65 -50 105 0 59 -22 92 -152 223 -106
107 -150 142 -178 142 -16 0 -12 -40 4 -46 9 -3 17 -28 21 -67 18 -170 68
-410 156 -747 48 -186 180 -661 204 -735 l7 -20 -17 20 c-59 71 -210 430 -250
596 -27 111 -34 273 -15 323 14 39 1 31 -15 -8 -40 -95 -25 -269 41 -466 46
-139 150 -351 215 -436 57 -76 64 -109 31 -153 -66 -89 -259 -57 -588 98 -59
28 -122 63 -141 77 l-33 25 -198 -35 c-324 -59 -426 -69 -667 -70 -305 -1
-482 27 -632 101 -50 24 -78 33 -94 28 -42 -14 -236 -103 -467 -215 -203 -98
-236 -111 -256 -102 -35 16 -49 70 -44 171 4 75 8 92 36 137 75 120 152 327
193 516 22 101 28 235 19 403 -3 53 4 80 59 234 96 263 176 463 184 455 14
-14 7 45 -14 112 -25 82 -66 158 -107 197 -21 20 -28 35 -24 52 4 22 1 25 -27
25 -52 0 -183 -30 -229 -52 -25 -12 -61 -42 -84 -72 -31 -38 -39 -45 -35 -26
13 48 25 156 32 283 l7 129 132 141 131 141 3 94 c3 76 7 92 18 88 8 -3 17 1
21 10 3 10 -15 35 -53 72 -168 162 -262 413 -295 783 -24 274 0 964 47 1324
26 200 29 210 82 251 103 78 119 99 148 189 l28 85 52 -243 c29 -133 55 -255
58 -272 4 -16 -34 49 -83 145 -50 96 -90 172 -90 168 -2 -19 269 -631 276
-624 6 5 -104 473 -162 690 -25 92 -45 187 -45 210 0 23 -13 82 -30 131 -16
49 -29 90 -27 91 2 2 26 -10 54 -26 48 -28 52 -33 55 -72 2 -35 7 -43 23 -43
18 0 20 6 17 50 -6 78 -56 221 -122 346 -131 246 -258 513 -252 527 4 11 1 13
-9 7 -8 -4 -11 -5 -8 -1 4 4 -13 46 -37 94 -40 80 -51 112 -39 112 3 0 28 -14
57 -32z m2134 -763 c43 -8 82 -19 87 -24 6 -6 -79 -250 -231 -663 -132 -359
-239 -654 -238 -655 1 -1 37 9 80 23 43 13 81 22 84 20 5 -6 -254 -655 -267
-668 -3 -4 -86 163 -183 372 -96 209 -171 380 -166 380 5 0 50 -11 100 -25 50
-15 92 -24 94 -22 3 3 -393 1087 -431 1179 -8 20 -10 20 170 47 112 17 212 29
365 44 111 11 464 6 536 -8z m-2193 -3557 c15 -35 32 -83 38 -108 7 -25 16
-49 19 -55 9 -13 -6 -254 -21 -325 -11 -56 -67 -190 -79 -190 -9 0 -46 120
-65 208 -20 95 -19 254 1 345 17 75 61 187 74 187 4 0 19 -28 33 -62z m334
-1585 c-6 -125 -32 -261 -82 -433 -34 -115 -114 -334 -121 -327 -2 1 10 52 27
112 16 61 52 225 80 365 48 245 75 366 85 382 14 22 16 -2 11 -99z"/>
<path d="M4316 6363 c-62 -256 -171 -802 -161 -811 9 -9 255 461 255 486 0 9
-18 -20 -110 -180 -41 -70 -75 -126 -77 -124 -2 2 28 176 67 386 38 211 68
386 66 388 -2 2 -20 -63 -40 -145z"/>
<path d="M1675 5521 c-22 -10 -56 -35 -74 -57 -152 -172 -214 -695 -105 -882
65 -111 226 -227 394 -283 169 -56 348 -49 472 18 26 14 54 33 61 42 6 8 -2 5
-19 -7 -72 -50 -124 -65 -244 -69 -141 -6 -216 10 -345 71 -153 73 -261 168
-306 271 -49 110 -47 364 5 568 87 341 250 406 435 172 60 -75 126 -174 120
-178 -2 -2 -34 -18 -70 -35 -78 -37 -131 -91 -166 -170 -48 -103 -40 -290 16
-401 86 -168 275 -214 480 -116 40 19 71 29 71 23 0 -6 2 -9 5 -6 3 3 -13 57
-36 120 l-42 115 -89 29 c-96 30 -96 36 0 49 28 4 52 9 52 12 0 12 -128 276
-173 358 -107 194 -225 329 -315 360 -58 19 -78 19 -127 -4z"/>
<path d="M4191 5498 c-161 -80 -334 -385 -498 -878 l-54 -165 27 -22 c67 -53
240 -69 357 -33 120 37 198 133 213 261 5 47 -9 206 -20 216 -2 2 -68 -12
-146 -32 -78 -20 -144 -34 -146 -32 -3 2 54 41 126 86 71 45 130 87 130 93 0
5 -14 37 -32 70 -31 59 -118 148 -143 148 -29 0 -23 20 24 86 57 82 138 160
186 180 180 75 331 -127 365 -488 11 -112 2 -262 -20 -340 -37 -131 -214 -258
-448 -320 -45 -11 -125 -22 -192 -25 -97 -4 -124 -2 -172 14 -31 11 -55 16
-52 12 2 -4 28 -16 57 -25 38 -14 81 -18 162 -18 281 2 583 145 657 311 96
218 40 657 -108 840 -66 81 -181 107 -273 61z"/>
<path d="M2290 4785 c0 -5 5 -17 10 -25 5 -8 10 -10 10 -5 0 6 -5 17 -10 25
-5 8 -10 11 -10 5z"/>
<path d="M3655 4360 c10 -11 20 -20 23 -20 3 0 -3 9 -13 20 -10 11 -20 20 -23
20 -3 0 3 -9 13 -20z"/>
<path d="M2001 3914 c0 -11 3 -14 6 -6 3 7 2 16 -1 19 -3 4 -6 -2 -5 -13z"/>
<path d="M2016 3870 c16 -63 90 -129 180 -162 85 -30 203 -33 484 -13 280 20
559 24 770 12 140 -9 148 -8 235 17 93 28 215 81 250 111 11 9 0 5 -25 -9 -63
-35 -211 -82 -303 -97 -68 -10 -98 -10 -213 6 -158 21 -446 17 -754 -10 -102
-9 -237 -15 -300 -13 -100 3 -123 7 -176 32 -64 29 -109 69 -138 121 -15 26
-16 27 -10 5z"/>
<path d="M2115 3421 c359 -377 951 -438 1552 -161 99 46 275 141 270 147 -2 2
-53 -21 -113 -51 -237 -117 -462 -190 -684 -222 -208 -30 -456 -7 -630 59
-139 52 -281 137 -390 233 l-55 48 50 -53z"/>
<path d="M4464 2695 c3 -11 21 -110 41 -220 42 -233 83 -412 96 -421 6 -3 8 4
5 18 -3 12 -17 100 -32 193 -27 181 -74 378 -99 423 -11 18 -14 20 -11 7z"/>
<path d="M3240 2541 c-36 -11 -119 -24 -185 -31 -525 -52 -755 -180 -755 -421
0 -50 31 -161 53 -189 7 -8 -4 -3 -23 11 -87 65 -219 273 -250 397 -8 30 -19
52 -27 52 -15 0 -16 2 34 -190 19 -74 63 -223 98 -330 79 -242 88 -292 89
-505 0 -115 3 -150 7 -110 22 195 2 364 -70 593 -57 180 -91 295 -91 308 0 4
14 -14 31 -42 58 -92 110 -152 185 -214 89 -74 113 -71 64 8 -66 108 -86 215
-55 303 56 158 248 242 670 293 l49 6 -59 -35 c-122 -72 -154 -137 -97 -195
32 -32 73 -45 205 -66 115 -18 171 -38 197 -72 20 -25 21 -34 14 -184 -6 -136
-5 -164 10 -203 16 -41 47 -75 69 -75 4 0 3 9 -3 19 -29 55 7 163 93 276 49
65 141 156 197 195 l35 24 -39 -43 c-59 -66 -79 -121 -84 -227 -4 -84 0 -107
52 -315 31 -123 67 -282 80 -354 13 -71 25 -120 25 -108 2 38 -48 291 -94 483
-53 217 -58 313 -25 403 38 101 120 172 236 202 31 8 59 17 61 19 2 2 -14 7
-36 11 -59 10 -137 -16 -225 -76 -116 -77 -267 -255 -297 -349 -25 -78 -30
-54 -27 122 3 176 3 176 -22 203 -36 40 -94 62 -206 80 -54 9 -115 21 -134 27
-43 13 -80 45 -80 69 0 55 192 161 332 184 103 17 120 23 116 44 -4 23 -42 23
-118 2z"/>
<path d="M2005 2013 c4 -10 23 -83 42 -163 20 -80 42 -165 49 -190 14 -45 14
-44 9 40 -2 47 -11 112 -20 145 -17 64 -70 185 -81 185 -3 0 -3 -8 1 -17z"/>
<path d="M3861 1801 c-84 -84 -128 -205 -117 -320 8 -95 26 -102 26 -10 0 120
44 244 118 329 43 51 24 52 -27 1z"/>
<path d="M2813 1536 c-62 -20 -129 -62 -152 -95 -29 -41 -26 -49 7 -19 72 68
192 103 330 96 91 -5 93 -5 61 10 -47 20 -193 25 -246 8z"/>
<path d="M2262 1130 c0 -19 2 -27 5 -17 2 9 2 25 0 35 -3 9 -5 1 -5 -18z"/>
<path d="M3762 1060 c0 -19 2 -27 5 -17 2 9 2 25 0 35 -3 9 -5 1 -5 -18z"/>
<path d="M2252 1060 c0 -14 2 -19 5 -12 2 6 2 18 0 25 -3 6 -5 1 -5 -13z"/>
<path d="M3772 985 c0 -16 2 -22 5 -12 2 9 2 23 0 30 -3 6 -5 -1 -5 -18z"/>
<path d="M1290 373 c4 -46 9 -58 23 -59 12 -1 13 -1 2 3 -11 3 -15 19 -15 59
0 30 -3 54 -8 54 -4 0 -5 -26 -2 -57z"/>
<path d="M1847 406 c4 -17 0 -25 -14 -29 -15 -4 -15 -5 -1 -6 11 -1 18 -12 21
-33 2 -18 5 -5 5 30 1 34 -2 62 -7 62 -4 0 -6 -11 -4 -24z"/>
<path d="M2808 383 c5 -76 10 -83 11 -15 0 34 -2 62 -7 62 -4 0 -6 -21 -4 -47z"/>
<path d="M4037 406 c4 -17 0 -25 -14 -29 -15 -4 -15 -5 -1 -6 11 -1 18 -12 21
-33 2 -18 5 -5 5 30 1 34 -2 62 -7 62 -4 0 -6 -11 -4 -24z"/>
<path d="M4958 383 c5 -76 10 -83 11 -15 0 34 -2 62 -7 62 -4 0 -6 -21 -4 -47z"/>
<path d="M353 413 c9 -2 25 -2 35 0 9 3 1 5 -18 5 -19 0 -27 -2 -17 -5z"/>
<path d="M2369 388 c-2 -27 3 -63 11 -71 4 -5 5 4 2 18 -2 15 0 30 6 34 6 4 5
11 -4 19 -11 10 -14 10 -15 0z"/>
<path d="M2509 388 c-2 -27 3 -63 11 -71 4 -5 5 4 2 18 -2 15 0 30 6 34 6 4 5
11 -4 19 -11 10 -14 10 -15 0z"/>
<path d="M3529 388 c-2 -27 3 -63 11 -71 4 -5 5 4 2 18 -2 15 0 30 6 34 6 4 5
11 -4 19 -11 10 -14 10 -15 0z"/>
<path d="M5058 363 c5 -59 10 -63 11 -10 1 26 -3 47 -7 47 -4 0 -6 -17 -4 -37z"/>
<path d="M5188 363 c5 -59 10 -63 11 -10 1 26 -3 47 -7 47 -4 0 -6 -17 -4 -37z"/>
<path d="M1037 384 c-9 -9 9 -68 21 -70 7 -1 8 0 2 3 -14 7 -13 50 2 55 8 3 6
6 -4 10 -9 4 -18 5 -21 2z"/>
<path d="M1547 384 c-9 -9 9 -68 21 -70 7 -1 8 0 2 3 -14 7 -13 50 2 55 8 3 6
6 -4 10 -9 4 -18 5 -21 2z"/>
<path d="M3169 382 c-3 -18 4 -58 11 -65 4 -5 5 4 2 18 -3 16 0 30 7 35 9 5 9
9 -3 13 -9 4 -16 3 -17 -1z"/>
<path d="M448 362 c9 -10 19 -17 21 -16 6 5 -20 34 -30 34 -5 0 -1 -8 9 -18z"/>
<path d="M598 345 c2 -19 6 -35 8 -35 2 0 4 16 4 35 0 19 -4 35 -8 35 -4 0 -6
-16 -4 -35z"/>
<path d="M620 376 c0 -2 7 -6 15 -10 8 -3 15 -1 15 4 0 6 -7 10 -15 10 -8 0
-15 -2 -15 -4z"/>
<path d="M677 373 c6 -4 13 -22 16 -38 4 -27 5 -27 3 4 0 21 -7 36 -16 38 -10
3 -11 2 -3 -4z"/>
<path d="M808 345 c2 -19 6 -35 8 -35 2 0 4 16 4 35 0 19 -4 35 -8 35 -4 0 -6
-16 -4 -35z"/>
<path d="M894 372 c5 -8 0 -12 -13 -12 -26 0 -27 -23 -3 -41 14 -11 15 -11 5
1 -18 20 -16 30 7 30 22 0 27 15 8 26 -7 4 -8 3 -4 -4z"/>
<path d="M1119 372 c11 -8 9 -11 -10 -15 -22 -4 -22 -4 4 -6 30 -1 34 19 6 27
-12 3 -12 2 0 -6z"/>
<path d="M1336 367 c3 -10 9 -15 12 -12 3 3 0 11 -7 18 -10 9 -11 8 -5 -6z"/>
<path d="M1629 372 c11 -8 9 -11 -10 -15 -22 -4 -22 -4 4 -6 30 -1 34 19 6 27
-12 3 -12 2 0 -6z"/>
<path d="M1721 363 c7 -12 15 -20 18 -17 3 2 -3 12 -13 22 -17 16 -18 16 -5
-5z"/>
<path d="M1888 345 c2 -19 6 -35 8 -35 2 0 4 16 4 35 0 19 -4 35 -8 35 -4 0
-6 -16 -4 -35z"/>
<path d="M1970 371 c13 -10 13 -12 0 -21 -9 -6 -10 -10 -3 -10 6 0 14 -8 17
-17 2 -10 4 -3 3 16 -1 21 -8 36 -17 38 -13 4 -13 3 0 -6z"/>
<path d="M2128 345 c2 -19 6 -35 8 -35 2 0 4 16 4 35 0 19 -4 35 -8 35 -4 0
-6 -16 -4 -35z"/>
<path d="M2209 342 c5 -34 6 -35 9 -8 2 16 0 32 -5 37 -5 5 -7 -7 -4 -29z"/>
<path d="M2419 348 c4 -17 12 -33 19 -34 7 -1 8 0 2 3 -5 2 -10 18 -10 34 0
16 -4 29 -9 29 -5 0 -6 -14 -2 -32z"/>
<path d="M2468 345 c2 -19 6 -35 8 -35 2 0 4 16 4 35 0 19 -4 35 -8 35 -4 0
-6 -16 -4 -35z"/>
<path d="M2638 345 c2 -19 6 -35 8 -35 2 0 4 16 4 35 0 19 -4 35 -8 35 -4 0
-6 -16 -4 -35z"/>
<path d="M2698 345 c2 -19 6 -35 8 -35 2 0 4 16 4 35 0 19 -4 35 -8 35 -4 0
-6 -16 -4 -35z"/>
<path d="M2750 376 c0 -2 7 -7 16 -10 8 -3 12 -2 9 4 -6 10 -25 14 -25 6z"/>
<path d="M3028 345 c2 -19 6 -35 8 -35 2 0 4 16 4 35 0 19 -4 35 -8 35 -4 0
-6 -16 -4 -35z"/>
<path d="M3128 345 c2 -19 6 -35 8 -35 2 0 4 16 4 35 0 19 -4 35 -8 35 -4 0
-6 -16 -4 -35z"/>
<path d="M3269 348 c4 -17 12 -33 19 -34 7 -1 8 0 2 3 -5 2 -10 18 -10 34 0
16 -4 29 -9 29 -5 0 -6 -14 -2 -32z"/>
<path d="M3368 373 c7 -3 16 -2 19 1 4 3 -2 6 -13 5 -11 0 -14 -3 -6 -6z"/>
<path d="M3480 371 c13 -10 13 -12 0 -21 -9 -6 -10 -10 -3 -10 6 0 14 -8 17
-17 2 -10 4 -3 3 16 -1 21 -8 36 -17 38 -13 4 -13 3 0 -6z"/>
<path d="M3736 367 c3 -10 9 -15 12 -12 3 3 0 11 -7 18 -10 9 -11 8 -5 -6z"/>
<path d="M4160 371 c13 -10 13 -12 0 -21 -9 -6 -10 -10 -3 -10 6 0 14 -8 17
-17 2 -10 4 -3 3 16 -1 21 -8 36 -17 38 -13 4 -13 3 0 -6z"/>
<path d="M4318 345 c2 -19 6 -35 8 -35 2 0 4 16 4 35 0 19 -4 35 -8 35 -4 0
-6 -16 -4 -35z"/>
<path d="M4399 342 c5 -34 6 -35 9 -8 2 16 0 32 -5 37 -5 5 -7 -7 -4 -29z"/>
<path d="M4518 373 c7 -3 16 -2 19 1 4 3 -2 6 -13 5 -11 0 -14 -3 -6 -6z"/>
<path d="M4569 348 c4 -17 12 -33 19 -34 7 -1 8 0 2 3 -5 2 -10 18 -10 34 0
16 -4 29 -9 29 -5 0 -6 -14 -2 -32z"/>
<path d="M4658 373 c7 -3 16 -2 19 1 4 3 -2 6 -13 5 -11 0 -14 -3 -6 -6z"/>
<path d="M4848 345 c2 -19 6 -35 8 -35 2 0 4 16 4 35 0 19 -4 35 -8 35 -4 0
-6 -16 -4 -35z"/>
<path d="M4910 371 c13 -10 13 -12 0 -21 -9 -6 -10 -10 -3 -10 6 0 14 -8 17
-17 2 -10 4 -3 3 16 -1 21 -8 36 -17 38 -13 4 -13 3 0 -6z"/>
<path d="M5102 355 c0 -16 2 -22 5 -12 2 9 2 23 0 30 -3 6 -5 -1 -5 -18z"/>
<path d="M5280 376 c0 -2 7 -7 16 -10 8 -3 12 -2 9 4 -6 10 -25 14 -25 6z"/>
<path d="M5368 362 c9 -10 19 -17 21 -16 6 5 -20 34 -30 34 -5 0 -1 -8 9 -18z"/>
<path d="M5447 373 c6 -4 13 -22 16 -38 4 -27 5 -27 3 4 0 21 -7 36 -16 38
-10 3 -11 2 -3 -4z"/>
<path d="M5480 376 c0 -2 7 -7 16 -10 8 -3 12 -2 9 4 -6 10 -25 14 -25 6z"/>
<path d="M358 363 c6 -2 18 -2 25 0 6 3 1 5 -13 5 -14 0 -19 -2 -12 -5z"/>
<path d="M2243 356 c1 -11 9 -21 17 -23 10 -3 11 -2 4 4 -6 4 -14 15 -17 23
-5 11 -6 9 -4 -4z"/>
<path d="M2281 354 c0 -11 3 -14 6 -6 3 7 2 16 -1 19 -3 4 -6 -2 -5 -13z"/>
<path d="M4433 356 c1 -11 9 -21 17 -23 10 -3 11 -2 4 4 -6 4 -14 15 -17 23
-5 11 -6 9 -4 -4z"/>
<path d="M4471 354 c0 -11 3 -14 6 -6 3 7 2 16 -1 19 -3 4 -6 -2 -5 -13z"/>
<path d="M721 349 c-1 -19 26 -45 36 -35 3 3 1 6 -6 6 -6 0 -16 10 -21 23 -6
15 -9 17 -9 6z"/>
<path d="M980 358 c0 -2 9 -11 20 -21 11 -9 20 -13 20 -7 0 5 -9 14 -20 20
-11 6 -20 9 -20 8z"/>
<path d="M1490 358 c0 -2 9 -11 20 -21 11 -9 20 -13 20 -7 0 5 -9 14 -20 20
-11 6 -20 9 -20 8z"/>
<path d="M2551 349 c-1 -19 26 -45 36 -35 3 3 1 6 -6 6 -6 0 -16 10 -21 23 -6
15 -9 17 -9 6z"/>
<path d="M2850 358 c0 -2 9 -11 20 -21 11 -9 20 -13 20 -7 0 5 -9 14 -20 20
-11 6 -20 9 -20 8z"/>
<path d="M3350 358 c0 -2 9 -11 20 -21 11 -9 20 -13 20 -7 0 5 -9 14 -20 20
-11 6 -20 9 -20 8z"/>
<path d="M4701 344 c0 -11 3 -14 6 -6 3 7 2 16 -1 19 -3 4 -6 -2 -5 -13z"/>
<path d="M4751 344 c0 -11 3 -14 6 -6 3 7 2 16 -1 19 -3 4 -6 -2 -5 -13z"/>
<path d="M5261 344 c0 -11 3 -14 6 -6 3 7 2 16 -1 19 -3 4 -6 -2 -5 -13z"/>
<path d="M2758 343 c7 -3 16 -2 19 1 4 3 -2 6 -13 5 -11 0 -14 -3 -6 -6z"/>
<path d="M1090 331 c0 -10 19 -25 25 -20 1 2 -3 10 -11 17 -8 7 -14 8 -14 3z"/>
<path d="M1600 331 c0 -10 19 -25 25 -20 1 2 -3 10 -11 17 -8 7 -14 8 -14 3z"/>
<path d="M1800 331 c0 -10 19 -25 25 -20 1 2 -3 10 -11 17 -8 7 -14 8 -14 3z"/>
<path d="M1940 331 c0 -6 4 -13 10 -16 6 -3 7 1 4 9 -7 18 -14 21 -14 7z"/>
<path d="M3450 331 c0 -6 4 -13 10 -16 6 -3 7 1 4 9 -7 18 -14 21 -14 7z"/>
<path d="M3990 331 c0 -10 19 -25 25 -20 1 2 -3 10 -11 17 -8 7 -14 8 -14 3z"/>
<path d="M4130 331 c0 -6 4 -13 10 -16 6 -3 7 1 4 9 -7 18 -14 21 -14 7z"/>
<path d="M4880 331 c0 -6 4 -13 10 -16 6 -3 7 1 4 9 -7 18 -14 21 -14 7z"/>
<path d="M3067 319 c7 -7 15 -10 18 -7 3 3 -2 9 -12 12 -14 6 -15 5 -6 -5z"/>
<path d="M4997 319 c7 -7 15 -10 18 -7 3 3 -2 9 -12 12 -14 6 -15 5 -6 -5z"/>
<path d="M1178 313 c7 -3 16 -2 19 1 4 3 -2 6 -13 5 -11 0 -14 -3 -6 -6z"/>
<path d="M1688 313 c7 -3 16 -2 19 1 4 3 -2 6 -13 5 -11 0 -14 -3 -6 -6z"/>
<path d="M2265 313 c11 -3 24 -10 28 -17 6 -7 7 -6 4 4 -2 8 -14 16 -28 17
-19 1 -20 1 -4 -4z"/>
<path d="M4455 313 c11 -3 24 -10 28 -17 6 -7 7 -6 4 4 -2 8 -14 16 -28 17
-19 1 -20 1 -4 -4z"/>
</g>
</svg>
